<svg aria-hidden="true" style="position: absolute; width: 0; height: 0; overflow: hidden;" version="1.1" xmlns="http://www.w3.org/2000/svg" xmlns:xlink="http://www.w3.org/1999/xlink">
<defs>
<symbol id="icon-delete" viewBox="0 0 32 32">
<path d="M13.667 2.667c-0.004-0-0.008-0-0.013-0-0.552 0-1 0.448-1 1 0 0.119 0.021 0.234 0.059 0.34l-0.002-0.007h-2.951c-1.225 0-2.372 0.613-3.051 1.633l-1.578 2.367h-0.131c-0.004-0-0.009-0-0.014-0-0.552 0-1 0.448-1 1s0.448 1 1 1c0.005 0 0.010-0 0.015-0h0.508c0.045 0.007 0.097 0.011 0.149 0.011 0.039 0 0.077-0.002 0.114-0.006l-0.005 0 1.648 15.385c0.199 1.855 1.781 3.276 3.646 3.276h9.874c1.865 0 3.447-1.421 3.646-3.276l1.65-15.385c0.032 0.004 0.069 0.006 0.107 0.006 0.052 0 0.103-0.004 0.153-0.012l-0.006 0.001h0.514c0.004 0 0.009 0 0.014 0 0.552 0 1-0.448 1-1s-0.448-1-1-1c-0.005 0-0.010 0-0.015 0h-0.131l-1.578-2.367c-0.68-1.019-1.826-1.633-3.051-1.633h-2.951c0.036-0.099 0.057-0.214 0.057-0.333 0-0.552-0.448-1-1-1-0.005 0-0.009 0-0.014 0h-4.666zM9.76 6h12.479c0.558 0 1.077 0.277 1.387 0.742l0.839 1.258h-16.93l0.839-1.258c0-0 0.001-0.001 0.001-0.001v0c0.309-0.464 0.826-0.741 1.385-0.741zM7.78 10h16.44l-1.626 15.177c-0.092 0.856-0.797 1.49-1.658 1.49h-9.874c-0.86 0-1.565-0.634-1.656-1.49l-1.626-15.177z"></path>
</symbol>


<symbol id="icon-communication" viewBox="0 0 32 32">
<path d="M1.15 21.271v-0.569c0-1.243 0.618-2.059 1.853-2.45s2.329-0.586 3.283-0.586c0.954 0 2.048 0.195 3.283 0.584s1.853 1.207 1.853 2.451v0.569h-10.271zM6.284 15.881c-0.725 0-1.345-0.259-1.861-0.776s-0.773-1.14-0.773-1.866 0.258-1.348 0.775-1.863c0.516-0.515 1.137-0.773 1.862-0.773s1.345 0.259 1.861 0.776c0.516 0.517 0.773 1.139 0.773 1.864s-0.258 1.346-0.775 1.864c-0.516 0.517-1.137 0.776-1.862 0.776zM13.244 17.88c-0.255 0-0.466-0.080-0.632-0.24s-0.249-0.365-0.249-0.616c0-0.125 0.083-0.342 0.249-0.65 0.172-0.244 0.309-0.5 0.409-0.767s0.15-0.545 0.15-0.834c0-0.289-0.050-0.575-0.15-0.858s-0.237-0.532-0.411-0.749c-0.072-0.097-0.131-0.198-0.177-0.303s-0.069-0.216-0.069-0.333c0-0.254 0.083-0.464 0.25-0.629s0.377-0.248 0.631-0.248c0.112 0 0.228 0.018 0.346 0.054s0.211 0.098 0.278 0.187c0.388 0.405 0.673 0.856 0.853 1.353s0.271 1.006 0.271 1.526c0 0.516-0.097 1.035-0.291 1.556s-0.48 0.968-0.856 1.34c-0.089 0.089-0.182 0.146-0.278 0.171s-0.204 0.038-0.322 0.038zM15.783 20.415c-0.26 0-0.471-0.084-0.633-0.251s-0.243-0.379-0.243-0.635c0-0.118 0.022-0.228 0.065-0.33s0.101-0.201 0.173-0.296c0.546-0.639 0.951-1.307 1.215-2.005s0.395-1.405 0.395-2.125-0.132-1.434-0.395-2.144c-0.264-0.71-0.669-1.376-1.216-1.998-0.071-0.095-0.129-0.192-0.172-0.291s-0.065-0.211-0.065-0.335c0-0.258 0.083-0.469 0.25-0.633s0.377-0.246 0.632-0.246c0.13 0 0.252 0.030 0.363 0.091s0.214 0.141 0.308 0.242c0.695 0.8 1.215 1.649 1.558 2.547s0.516 1.819 0.516 2.764c0 0.945-0.172 1.866-0.516 2.764s-0.863 1.747-1.558 2.547c-0.087 0.111-0.187 0.194-0.299 0.25s-0.238 0.083-0.378 0.083zM20.579 21.271v-0.569c0-1.244 0.617-2.061 1.853-2.451s2.329-0.584 3.283-0.584c0.954 0 2.048 0.195 3.283 0.586s1.853 1.207 1.853 2.45v0.569h-10.271zM25.713 15.881c-0.725 0-1.345-0.259-1.861-0.776s-0.773-1.14-0.773-1.866 0.258-1.348 0.775-1.863c0.516-0.515 1.137-0.773 1.862-0.773s1.345 0.259 1.861 0.776c0.516 0.517 0.773 1.139 0.773 1.864s-0.258 1.346-0.775 1.864c-0.516 0.517-1.137 0.776-1.862 0.776z"></path>
</symbol>
<symbol id="icon-close" viewBox="0 0 32 32">
<path stroke-linejoin="miter" stroke-linecap="butt" stroke-miterlimit="4" stroke-width="1.3333" d="M23.466 7.9c0.219 0 0.355 0.065 0.462 0.172s0.172 0.242 0.172 0.461c0 0.219-0.065 0.355-0.172 0.462l-7.005 7.005 7.005 7.004c0.107 0.107 0.172 0.243 0.172 0.462s-0.065 0.355-0.172 0.462-0.243 0.172-0.462 0.172c-0.219 0-0.355-0.065-0.462-0.172l-7.004-7.005-7.005 7.005c-0.107 0.107-0.243 0.172-0.462 0.172s-0.354-0.065-0.461-0.172c-0.107-0.107-0.172-0.243-0.172-0.462s0.065-0.355 0.172-0.462l7.004-7.004-7.004-7.005c-0.107-0.107-0.172-0.243-0.172-0.462s0.065-0.354 0.172-0.461 0.242-0.172 0.461-0.172c0.219 0 0.355 0.065 0.462 0.172l7.005 7.004 7.004-7.004c0.107-0.107 0.243-0.172 0.462-0.172z"></path>
</symbol>
<symbol id="icon-chevron_right" viewBox="0 0 32 32">
<path stroke-linejoin="miter" stroke-linecap="butt" stroke-miterlimit="4" stroke-width="1.3333" d="M12.516 8.897c0.134 0 0.237 0.041 0.341 0.145l6.592 6.592c0.072 0.072 0.105 0.128 0.121 0.165v0.001c0.020 0.047 0.031 0.1 0.031 0.165s-0.012 0.118-0.031 0.165v0.001c-0.016 0.037-0.049 0.093-0.121 0.165l-6.625 6.625c-0.104 0.104-0.193 0.133-0.301 0.129-0.125-0.005-0.233-0.047-0.348-0.161-0.104-0.104-0.146-0.207-0.146-0.341s0.042-0.237 0.146-0.341l6.242-6.242-6.276-6.276c-0.104-0.104-0.133-0.192-0.129-0.299 0.005-0.126 0.048-0.234 0.163-0.349 0.104-0.104 0.206-0.144 0.34-0.145z"></path>
</symbol>
<symbol id="icon-chevron_left" viewBox="0 0 32 32">
<path stroke-linejoin="miter" stroke-linecap="butt" stroke-miterlimit="4" stroke-width="1.3333" d="M18.716 8.865c0.134 0 0.237 0.041 0.341 0.145s0.145 0.207 0.145 0.341-0.040 0.237-0.145 0.341l-6.276 6.276 6.276 6.275c0.104 0.104 0.133 0.193 0.129 0.301-0.005 0.125-0.047 0.233-0.161 0.348-0.104 0.104-0.207 0.146-0.341 0.146s-0.237-0.042-0.341-0.146l-6.592-6.591c-0.036-0.036-0.063-0.069-0.082-0.096l-0.039-0.070c-0.020-0.047-0.031-0.101-0.031-0.165 0-0.032 0.002-0.063 0.008-0.090l0.023-0.077c0.016-0.038 0.049-0.094 0.121-0.167l6.626-6.625c0.104-0.104 0.206-0.144 0.34-0.145z"></path>
</symbol>
<symbol id="icon-bookmark" viewBox="0 0 32 32">
<path d="M16 24.223l-6.358 2.72c-0.757 0.326-1.475 0.265-2.155-0.184s-1.020-1.083-1.020-1.905v-18.95c0-0.616 0.225-1.149 0.676-1.601s0.982-0.678 1.595-0.678h14.523c0.616 0 1.149 0.226 1.601 0.678s0.678 0.985 0.678 1.601v18.95c0 0.821-0.341 1.456-1.024 1.905s-1.402 0.51-2.159 0.184l-6.358-2.72zM16 21.794l7.262 3.061v-18.95h-14.523v18.95l7.262-3.061zM16 5.905v0z"></path>
</symbol>
<symbol id="icon-arrow_forward" viewBox="0 0 32 32">
<path stroke-linejoin="miter" stroke-linecap="butt" stroke-miterlimit="4" stroke-width="1.3333" d="M15.993 6.253c0.095 0.001 0.177 0.023 0.259 0.081l0.082 0.070 9.264 9.264c0.071 0.072 0.105 0.128 0.121 0.167v0.001c0.020 0.048 0.031 0.102 0.031 0.165s-0.012 0.116-0.031 0.163v0.001c-0.016 0.038-0.050 0.094-0.121 0.167l-9.272 9.264c-0.122 0.12-0.227 0.155-0.337 0.155-0.108-0-0.204-0.033-0.315-0.147l-0.007-0.007-0.069-0.081c-0.056-0.079-0.075-0.157-0.075-0.243s0.020-0.163 0.075-0.242l0.069-0.081 8.482-8.482h-17.88c-0.163-0-0.259-0.047-0.34-0.128h-0.001c-0.081-0.081-0.128-0.179-0.128-0.341s0.046-0.26 0.128-0.341h0.001c0.081-0.081 0.177-0.127 0.34-0.128h17.88l-8.474-8.474c-0.082-0.082-0.124-0.16-0.141-0.246l-0.008-0.090c-0.001-0.12 0.034-0.218 0.141-0.326l0.001-0.001c0.107-0.107 0.205-0.143 0.324-0.142z"></path>
</symbol>
<symbol id="icon-arrow_back" viewBox="0 0 32 32">
<path stroke-linejoin="miter" stroke-linecap="butt" stroke-miterlimit="4" stroke-width="1.3333" d="M16.010 6.249c0.114 0 0.212 0.035 0.322 0.145 0.11 0.115 0.145 0.217 0.145 0.332-0 0.116-0.035 0.214-0.145 0.324l-8.482 8.482h17.88c0.162 0 0.262 0.047 0.348 0.132 0.083 0.082 0.129 0.177 0.129 0.337s-0.046 0.255-0.129 0.337c-0.085 0.084-0.186 0.131-0.348 0.132h-17.88l8.474 8.473c0.11 0.11 0.147 0.212 0.148 0.335v0.001c0.001 0.089-0.019 0.167-0.074 0.246l-0.069 0.082c-0.107 0.108-0.204 0.143-0.323 0.142-0.126-0.001-0.23-0.041-0.341-0.151l-9.264-9.264c-0.071-0.072-0.105-0.128-0.121-0.167v-0.001c-0.020-0.048-0.031-0.102-0.031-0.165s0.012-0.116 0.031-0.163v-0.001c0.016-0.038 0.050-0.095 0.121-0.167l9.267-9.267c0.121-0.116 0.227-0.152 0.342-0.152z"></path>
</symbol>
<symbol id="icon-plant_logo" viewBox="0 0 32 32">
<path fill="#f6cc90" style="fill: var(--color1, #f6cc90)" d="M3.189 31.41c0-0.021 3.801-3.247 12.763-3.247 8.706 0 12.763 3.226 12.763 3.247h-25.526z"></path>
<path fill="#f0c17f" style="fill: var(--color2, #f0c17f)" d="M15.951 28.163c-0.556 0-1.092 0.012-1.609 0.036 7.627 0.352 11.197 3.192 11.197 3.211h3.175c0-0.021-4.058-3.247-12.763-3.247z"></path>
<path fill="#c5e866" style="fill: var(--color3, #c5e866)" d="M21.746 5.699c-1.038 3.012-3.837 3.531-3.837 3.531s-1.854-2.22-0.843-5.154c1.065-3.091 3.864-3.609 3.864-3.609s1.868 2.181 0.816 5.232z"></path>
<path fill="#b2d94b" style="fill: var(--color4, #b2d94b)" d="M20.932 0.467c0 0-0.74 0.137-1.603 0.69 0.474 0.875 1.063 2.517 0.364 4.542-0.502 1.457-1.417 2.331-2.227 2.844 0.238 0.439 0.444 0.686 0.444 0.686s2.798-0.518 3.837-3.531c1.052-3.051-0.816-5.232-0.816-5.232z"></path>
<path fill="#9cc042" style="fill: var(--color5, #9cc042)" d="M18.958 19.861c-1.706 0.242-2.962-0.106-2.962-0.106s-1.086-4.358 2.308-7.764c3.575-3.587 7.83-2.406 7.83-2.406s0.933 3.558-1.54 6.863z"></path>
<path fill="#85aa18" style="fill: var(--color6, #85aa18)" d="M26.132 9.585c0 0-1.141-0.316-2.737-0.124 0.431 0.054 0.683 0.124 0.683 0.124s0.933 3.557-1.54 6.863l-5.636 3.412c-0.062 0.009-0.124 0.017-0.185 0.024 0.532 0.066 1.32 0.107 2.24-0.024l5.636-3.412c2.473-3.306 1.54-6.863 1.54-6.863z"></path>
<path fill="#c5e866" style="fill: var(--color3, #c5e866)" d="M11.927 17.575c3.028 2.386 2.511 5.807 2.511 5.807s-3.27 1.251-6.219-1.073c-3.107-2.449-2.59-5.869-2.59-5.869s3.23-1.282 6.298 1.135z"></path>
<path fill="#9cc042" style="fill: var(--color5, #9cc042)" d="M8.454 12.653c3.049 3.884 7.412 3.217 7.412 3.217s1.592-4.199-1.378-7.983c-3.128-3.985-7.491-3.317-7.491-3.317s-1.631 4.149 1.457 8.084z"></path>
<path fill="#c5e866" style="fill: var(--color3, #c5e866)" d="M23.805 21.622c-2.616 1.809-5.176 0.562-5.176 0.562s-0.182-2.891 2.366-4.652c2.684-1.856 5.244-0.609 5.244-0.609s0.216 2.867-2.434 4.699z"></path>
<path fill="#b2d94b" style="fill: var(--color4, #b2d94b)" d="M26.239 16.922c0 0-1.334-0.649-3.087-0.312 0.639 0.121 1.032 0.312 1.032 0.312s0.216 2.867-2.434 4.699c-0.709 0.49-1.414 0.756-2.066 0.883 0.988 0.188 2.544 0.207 4.12-0.883 2.65-1.832 2.434-4.699 2.434-4.699z"></path>
<path fill="#060606" style="fill: var(--color7, #060606)" d="M28.792 30.883c-0.924-0.651-1.976-1.136-3.027-1.54-1.896-0.73-5.050-1.595-9.42-1.644 0.071-0.604 0.239-1.472 0.633-2.439 0.391-0.96 0.921-1.826 1.584-2.595 0.311 0.128 1.113 0.409 2.161 0.409 0.97 0 2.151-0.241 3.347-1.068 2.838-1.962 2.644-4.991 2.634-5.118-0.012-0.166-0.112-0.312-0.261-0.385-0.043-0.021-0.446-0.212-1.085-0.341 0.52-0.817 0.902-1.703 1.137-2.644 0.146-0.584-0.76-0.811-0.906-0.227-0.248 0.992-0.678 1.917-1.279 2.753-1.011-0.024-2.281 0.205-3.581 1.105-0.97 0.67-1.575 1.486-1.953 2.265-0.819 0.104-1.524 0.066-2.001 0.007 0.949-1.28 3.422-4.381 6.206-6.001 0.521-0.303 0.051-1.11-0.47-0.807-2.709 1.576-5.067 4.382-6.204 5.872-0.066-1.454 0.186-4.017 2.326-6.164 1.395-1.399 3.055-2.21 4.933-2.409 0.983-0.104 1.775-0.005 2.169 0.066 0.041 0.244 0.092 0.637 0.101 1.131 0.010 0.597 0.944 0.589 0.934-0.016-0.017-0.969-0.18-1.599-0.186-1.626-0.042-0.161-0.167-0.287-0.327-0.331-0.047-0.013-1.166-0.317-2.746-0.157-1.454 0.148-3.595 0.733-5.539 2.683-0.162 0.163-0.314 0.328-0.457 0.494 0.262-0.807 0.549-1.681 0.841-2.559 0.846-0.258 2.935-1.142 3.832-3.745 1.126-3.267-0.819-5.591-0.903-5.688-0.108-0.127-0.276-0.186-0.44-0.155-0.125 0.023-3.079 0.606-4.22 3.916-0.947 2.748 0.403 4.896 0.815 5.462-0.272 0.818-0.538 1.629-0.784 2.384-0.189-1.263-0.682-2.745-1.802-4.172-1.701-2.167-3.758-3.002-5.184-3.321-1.55-0.346-2.697-0.177-2.745-0.17-0.164 0.025-0.303 0.136-0.364 0.291-0.013 0.033-0.323 0.831-0.428 2.055-0.052 0.6 0.879 0.68 0.93 0.080 0.059-0.689 0.192-1.227 0.28-1.527 0.4-0.024 1.197-0.028 2.161 0.192 1.842 0.421 3.395 1.423 4.615 2.977 1.156 1.473 1.729 3.182 1.703 5.079-0.008 0.618-0.082 1.157-0.164 1.571-1.847-3.44-4.463-6.083-4.577-6.198-0.425-0.427-1.086 0.233-0.661 0.659 0.028 0.028 2.724 2.754 4.51 6.158-0.417-0.009-0.959-0.056-1.566-0.19-1.828-0.405-3.357-1.377-4.544-2.889-0.826-1.053-1.374-2.222-1.626-3.473-0.119-0.59-1.035-0.406-0.915 0.185 0.282 1.396 0.89 2.696 1.807 3.865 1.661 2.116 3.7 2.926 5.118 3.233 0.707 0.153 1.435 0.226 2.158 0.202v7.863c-0.141-0.304-0.293-0.591-0.453-0.864 0.063-0.553 0.294-3.813-2.694-6.167-3.241-2.555-6.617-1.259-6.759-1.203-0.154 0.061-0.265 0.2-0.289 0.364-0.023 0.151-0.52 3.719 2.763 6.306 1.524 1.201 3.118 1.515 4.365 1.515 0.81 0 1.474-0.132 1.88-0.239 0.65 1.135 1.034 2.389 1.15 3.751-2.417 0.041-4.671 0.318-6.709 0.828-0.584 0.146-0.358 1.052 0.226 0.906 1.975-0.494 4.167-0.762 6.52-0.8v1.073c0 0.602 0.934 0.602 0.934 0v-1.076c5.507 0.055 9.027 1.403 10.777 2.31h-22.296c0.454-0.241 1.035-0.515 1.751-0.787 0.563-0.214 0.231-1.087-0.332-0.873-1.163 0.442-1.991 0.891-2.481 1.19-0.995 0.606-0.995 0.752-0.995 0.938 0 0.258 0.209 0.467 0.467 0.467h25.526c0.71 0 0.43-0.745 0.078-0.994zM21.26 17.916c1.97-1.362 3.841-0.913 4.514-0.677-0.026 0.721-0.287 2.652-2.236 3.999-1.767 1.222-3.485 0.928-4.268 0.689 0.921-0.861 2.040-1.577 3.354-2.14 0.554-0.237 0.186-1.096-0.368-0.858-1.185 0.508-2.163 1.113-2.969 1.761 0.243-0.867 0.782-1.95 1.973-2.774zM17.738 20.413c0.209 0 0.432-0.007 0.666-0.025-0.154 0.534-0.213 1.003-0.234 1.332-0.884 0.939-1.477 1.907-1.873 2.765v-4.191c0.327 0.056 0.827 0.118 1.441 0.118zM17.509 4.228c0.782-2.268 2.553-3.020 3.236-3.231 0.405 0.598 1.334 2.307 0.561 4.55-0.579 1.679-1.74 2.508-2.563 2.9 0.606-1.792 1.205-3.49 1.64-4.556 0.228-0.558-0.637-0.91-0.865-0.353-0.453 1.112-1.071 2.864-1.691 4.698-0.425-0.813-0.918-2.268-0.318-4.008zM8.508 21.942c-1.191-0.938-1.96-2.133-2.285-3.55-0.16-0.695-0.168-1.278-0.154-1.604 0.796-0.223 3.237-0.684 5.569 1.154 1.158 0.913 1.903 2.088 2.216 3.494 0.045 0.204 0.078 0.399 0.101 0.581-0.311-0.375-0.627-0.705-0.932-0.991-1.611-1.512-3.21-2.145-3.277-2.171-0.561-0.219-0.9 0.652-0.339 0.87 0.015 0.006 1.497 0.592 2.977 1.981 0.473 0.444 0.89 0.914 1.251 1.41-1.035 0.211-3.162 0.373-5.126-1.175z"></path>
</symbol>
<symbol id="icon-menu" viewBox="0 0 32 32">
<path d="M4.936 24.295c-0.321 0-0.59-0.11-0.808-0.329s-0.327-0.493-0.327-0.82c0-0.322 0.109-0.591 0.327-0.807s0.488-0.323 0.808-0.323h22.127c0.321 0 0.591 0.11 0.812 0.329s0.331 0.49 0.331 0.812c0 0.328-0.11 0.599-0.331 0.814s-0.492 0.323-0.812 0.323h-22.127zM4.936 17.136c-0.321 0-0.59-0.11-0.808-0.329s-0.327-0.49-0.327-0.812c0-0.322 0.109-0.591 0.327-0.806s0.488-0.323 0.808-0.323h22.127c0.321 0 0.591 0.11 0.812 0.329s0.331 0.49 0.331 0.812c0 0.322-0.11 0.591-0.331 0.806s-0.492 0.323-0.812 0.323h-22.127zM4.936 9.984c-0.321 0-0.59-0.11-0.808-0.329s-0.327-0.493-0.327-0.82c0-0.322 0.109-0.591 0.327-0.806s0.488-0.323 0.808-0.323h22.127c0.321 0 0.591 0.11 0.812 0.329s0.331 0.49 0.331 0.812c0 0.328-0.11 0.599-0.331 0.815s-0.492 0.323-0.812 0.323h-22.127z"></path>
</symbol>
<symbol id="icon-logout" viewBox="0 0 32 32">
<path d="M6.072 28.199c-0.613 0-1.145-0.225-1.595-0.676s-0.676-0.982-0.676-1.595v-19.857c0-0.616 0.225-1.149 0.676-1.601s0.982-0.678 1.595-0.678h8.807c0.321 0 0.59 0.111 0.808 0.334s0.327 0.495 0.327 0.816c0 0.322-0.109 0.59-0.327 0.806s-0.487 0.323-0.808 0.323h-8.807v19.857h8.807c0.321 0 0.59 0.11 0.808 0.329s0.327 0.49 0.327 0.812c0 0.322-0.109 0.591-0.327 0.806s-0.487 0.323-0.808 0.323h-8.807zM23.856 17.136h-10.768c-0.32 0-0.59-0.11-0.808-0.329s-0.327-0.49-0.327-0.812c0-0.322 0.109-0.591 0.327-0.806s0.488-0.323 0.808-0.323h10.701l-2.564-2.564c-0.227-0.228-0.334-0.495-0.323-0.8s0.13-0.571 0.357-0.795c0.226-0.229 0.496-0.342 0.81-0.34s0.585 0.117 0.815 0.344l4.529 4.529c0.221 0.229 0.332 0.494 0.332 0.797s-0.111 0.568-0.332 0.794l-4.496 4.496c-0.222 0.226-0.486 0.335-0.792 0.327s-0.577-0.126-0.812-0.352c-0.218-0.227-0.328-0.497-0.331-0.811s0.112-0.586 0.344-0.813l2.531-2.539z"></path>
</symbol>
<symbol id="icon-keyboard_arrow_up" viewBox="0 0 32 32">
<path stroke-linejoin="miter" stroke-linecap="butt" stroke-miterlimit="4" stroke-width="1.3333" d="M16 11.605c0.125 0 0.227 0.038 0.333 0.145l6.591 6.592c0.109 0.109 0.145 0.208 0.145 0.324s-0.035 0.215-0.145 0.324c-0.104 0.104-0.207 0.145-0.341 0.145s-0.236-0.041-0.34-0.145l-0.001-0.001-6.243-6.207-6.241 6.241c-0.104 0.104-0.192 0.133-0.299 0.129-0.126-0.005-0.234-0.047-0.349-0.161-0.104-0.104-0.145-0.207-0.145-0.341s0.040-0.237 0.145-0.341l6.559-6.559c0.107-0.107 0.207-0.144 0.332-0.145z"></path>
</symbol>
<symbol id="icon-keyboard_arrow_down" viewBox="0 0 32 32">
<path stroke-linejoin="miter" stroke-linecap="butt" stroke-miterlimit="4" stroke-width="1.3333" d="M9.449 12.031c0.134 0 0.237 0.041 0.341 0.145l6.208 6.244 6.243-6.244c0.104-0.103 0.192-0.133 0.299-0.129 0.126 0.005 0.234 0.048 0.349 0.163 0.104 0.104 0.145 0.207 0.145 0.341s-0.041 0.236-0.145 0.34l-6.559 6.559c-0.072 0.072-0.129 0.107-0.167 0.122-0.047 0.020-0.101 0.031-0.165 0.031-0.033 0-0.062-0.004-0.090-0.009l-0.077-0.022-0.070-0.040c-0.028-0.019-0.059-0.046-0.095-0.082l-6.592-6.591c-0.098-0.098-0.133-0.191-0.129-0.318 0.005-0.143 0.053-0.255 0.163-0.365 0.104-0.104 0.206-0.144 0.34-0.145z"></path>
</symbol>
<symbol id="icon-Instagram" viewBox="0 0 32 32">
<path d="M16.006 6.488c3.206 0 3.585 0.014 4.846 0.071 1.172 0.052 1.804 0.248 2.227 0.412 0.558 0.216 0.961 0.478 1.378 0.895 0.422 0.422 0.679 0.82 0.9 1.378 0.164 0.422 0.361 1.059 0.412 2.226 0.056 1.266 0.071 1.645 0.071 4.847s-0.014 3.585-0.071 4.847c-0.052 1.172-0.248 1.804-0.412 2.227-0.216 0.558-0.478 0.961-0.895 1.377-0.422 0.422-0.82 0.679-1.377 0.9-0.422 0.164-1.060 0.361-2.227 0.413-1.266 0.056-1.645 0.070-4.847 0.070s-3.585-0.014-4.847-0.070c-1.172-0.052-1.804-0.248-2.226-0.413-0.558-0.216-0.961-0.478-1.378-0.895-0.422-0.422-0.679-0.82-0.9-1.378-0.164-0.422-0.361-1.060-0.412-2.226-0.056-1.266-0.071-1.645-0.071-4.847s0.014-3.585 0.071-4.847c0.052-1.172 0.248-1.804 0.412-2.226 0.216-0.558 0.478-0.961 0.895-1.378 0.422-0.422 0.82-0.679 1.378-0.9 0.422-0.164 1.059-0.361 2.226-0.412 1.261-0.056 1.641-0.071 4.847-0.071h0.001zM16.006 4.328c-3.258 0-3.665 0.014-4.945 0.071-1.275 0.056-2.151 0.262-2.91 0.558-0.792 0.309-1.462 0.717-2.127 1.387-0.67 0.666-1.078 1.336-1.387 2.123-0.295 0.764-0.502 1.636-0.558 2.91-0.056 1.285-0.071 1.692-0.071 4.949s0.014 3.665 0.071 4.945c0.056 1.275 0.262 2.151 0.558 2.91 0.31 0.792 0.717 1.462 1.387 2.127 0.665 0.665 1.336 1.078 2.123 1.383 0.764 0.295 1.636 0.502 2.91 0.558 1.279 0.056 1.687 0.071 4.945 0.071s3.665-0.014 4.945-0.071c1.275-0.056 2.151-0.262 2.91-0.558 0.787-0.305 1.458-0.717 2.123-1.383s1.078-1.335 1.383-2.123c0.295-0.764 0.502-1.635 0.558-2.91 0.056-1.279 0.070-1.687 0.070-4.945s-0.014-3.665-0.070-4.945c-0.056-1.275-0.263-2.151-0.558-2.91-0.295-0.797-0.703-1.467-1.373-2.133-0.665-0.665-1.336-1.078-2.123-1.383-0.764-0.295-1.636-0.502-2.91-0.558-1.284-0.061-1.692-0.075-4.949-0.075l-0.001 0.001z"></path>
<path d="M16.006 10.163c-3.402 0-6.163 2.76-6.163 6.163s2.76 6.163 6.163 6.163 6.163-2.76 6.163-6.163c0-3.402-2.76-6.163-6.163-6.163zM16.006 20.324c-2.208 0-3.998-1.79-3.998-3.998s1.79-3.998 3.998-3.998 3.998 1.79 3.998 3.998c0 2.208-1.79 3.998-3.998 3.998z"></path>
<path d="M23.851 9.919c0 0.795-0.644 1.439-1.439 1.439s-1.439-0.644-1.439-1.439c0-0.795 0.644-1.439 1.439-1.439s1.439 0.644 1.439 1.439z"></path>
</symbol>
<symbol id="icon-Facebook" viewBox="0 0 32 32">
<path d="M29.333 16.405c0-7.409-5.969-13.415-13.333-13.415s-13.333 6.006-13.333 13.415c0 6.696 4.876 12.245 11.25 13.252v-9.374h-3.385v-3.878h3.385v-2.955c0-3.362 1.991-5.219 5.036-5.219 1.459 0 2.985 0.262 2.985 0.262v3.301h-1.681c-1.656 0-2.173 1.034-2.173 2.095v2.516h3.698l-0.591 3.878h-3.107v9.374c6.374-1.006 11.25-6.556 11.25-13.252z"></path>
</symbol>
<symbol id="icon-edit" viewBox="0 0 32 32">
<path d="M6.064 25.928h1.475l15.327-15.294-1.459-1.467-15.343 15.302v1.459zM4.936 28.199c-0.326 0-0.597-0.108-0.812-0.323s-0.323-0.486-0.323-0.812v-2.561c0-0.304 0.062-0.601 0.187-0.891s0.289-0.537 0.493-0.742l18.471-18.446c0.183-0.188 0.404-0.335 0.661-0.441s0.525-0.158 0.803-0.158c0.255 0 0.51 0.053 0.765 0.158s0.491 0.25 0.707 0.433l1.73 1.706c0.205 0.216 0.355 0.453 0.449 0.711s0.141 0.517 0.141 0.777c0 0.26-0.053 0.524-0.158 0.79s-0.25 0.494-0.433 0.682l-18.471 18.438c-0.21 0.204-0.458 0.369-0.746 0.493s-0.583 0.187-0.887 0.187h-2.577zM22.14 9.893l-0.733-0.725 1.459 1.467-0.725-0.741z"></path>
</symbol>
<symbol id="icon-Youtube" viewBox="0 0 32 32">
<path d="M28.791 9.604c-0.152-0.563-0.449-1.077-0.861-1.49s-0.925-0.711-1.489-0.864c-2.088-0.573-10.441-0.583-10.441-0.583s-8.352-0.009-10.441 0.539c-0.563 0.16-1.075 0.462-1.487 0.878s-0.711 0.929-0.867 1.493c-0.551 2.088-0.556 6.419-0.556 6.419s-0.005 4.352 0.541 6.419c0.307 1.143 1.207 2.045 2.351 2.353 2.109 0.573 10.44 0.583 10.44 0.583s8.353 0.009 10.441-0.537c0.563-0.153 1.077-0.45 1.49-0.862s0.712-0.925 0.866-1.488c0.552-2.087 0.556-6.416 0.556-6.416s0.027-4.353-0.543-6.441zM13.328 20.007l0.007-8 6.943 4.007-6.949 3.993z"></path>
</symbol>
<symbol id="icon-X" viewBox="0 0 32 32">
<path d="M22.901 5.657h3.68l-8.040 9.037 9.459 12.297h-7.406l-5.801-7.458-6.637 7.458h-3.682l8.6-9.666-9.074-11.668h7.594l5.243 6.817 6.064-6.817zM21.61 24.824h2.039l-13.163-17.115h-2.188l13.312 17.115z"></path>
</symbol>
<symbol id="icon-X" viewBox="0 0 32 32">
<path d="M22.901 5.657h3.68l-8.040 9.037 9.459 12.297h-7.406l-5.801-7.458-6.637 7.458h-3.682l8.6-9.666-9.074-11.668h7.594l5.243 6.817 6.064-6.817zM21.61 24.824h2.039l-13.163-17.115h-2.188l13.312 17.115z"></path>
</symbol>
<symbol id="icon-travel" viewBox="0 0 27 32">
<path d="M12.71 27.463l-8.477 3.627c-1.009 0.435-1.967 0.353-2.873-0.245s-1.36-1.445-1.36-2.539v-25.267c0-0.821 0.3-1.532 0.901-2.135s1.309-0.904 2.127-0.904h19.364c0.821 0 1.532 0.301 2.135 0.904s0.904 1.314 0.904 2.135v25.267c0 1.095-0.455 1.941-1.365 2.539s-1.869 0.68-2.879 0.245l-8.477-3.627zM12.71 24.223l9.682 4.082v-25.267h-19.364v25.267l9.682-4.082zM12.71 3.039v0z"></path>
</symbol>
<symbol id="icon-wand_stars" viewBox="0 0 32 32">
<path d="M21.848 16.962l-3.113 5.020c-0.178 0.294-0.429 0.408-0.754 0.341s-0.532-0.258-0.621-0.575l-1.092-4.41-10.080 10.031c-0.227 0.232-0.492 0.348-0.796 0.348s-0.569-0.116-0.796-0.348c-0.226-0.227-0.34-0.492-0.34-0.796s0.113-0.569 0.34-0.796l10.047-10.039-4.425-1.092c-0.316-0.089-0.507-0.296-0.571-0.62s0.048-0.579 0.337-0.762l5.020-3.146-0.408-5.869c-0.022-0.339 0.118-0.586 0.421-0.741s0.579-0.122 0.829 0.1l4.504 3.788 5.461-2.189c0.311-0.111 0.58-0.053 0.808 0.175s0.286 0.497 0.175 0.808l-2.222 5.461 3.788 4.512c0.222 0.25 0.261 0.526 0.117 0.829s-0.386 0.443-0.725 0.421l-5.902-0.449zM4.215 7.999c-0.122-0.116-0.183-0.253-0.183-0.411s0.061-0.297 0.183-0.418l1.629-1.629c0.116-0.116 0.253-0.175 0.41-0.175s0.297 0.058 0.419 0.175l1.588 1.596c0.122 0.122 0.182 0.26 0.182 0.414s-0.061 0.293-0.182 0.415l-1.629 1.629c-0.122 0.122-0.26 0.182-0.415 0.182s-0.293-0.061-0.414-0.182l-1.588-1.596zM18.649 18.049l2.052-3.304 3.896 0.292-2.536-2.987 1.468-3.604-3.604 1.46-2.995-2.536 0.3 3.896-3.312 2.077 3.796 0.943 0.935 3.763zM24.035 27.785l-1.629-1.621c-0.122-0.122-0.177-0.26-0.166-0.414s0.077-0.293 0.199-0.415l1.596-1.588c0.116-0.122 0.253-0.183 0.411-0.183s0.297 0.061 0.418 0.183l1.629 1.621c0.116 0.122 0.169 0.26 0.158 0.415s-0.075 0.293-0.191 0.414l-1.596 1.588c-0.122 0.122-0.26 0.183-0.414 0.183s-0.293-0.061-0.415-0.183z"></path>
</symbol>
<symbol id="icon-travel_luggage_and_bags" viewBox="0 0 32 32">
<path d="M6.467 25.762v-15.69c0-0.632 0.221-1.17 0.663-1.614s0.978-0.665 1.608-0.665h3.341v-4.206c0-0.325 0.119-0.608 0.358-0.851s0.521-0.364 0.846-0.364h5.435c0.325 0 0.607 0.121 0.846 0.364s0.358 0.526 0.358 0.851v4.206h3.341c0.632 0 1.17 0.222 1.614 0.665s0.665 0.981 0.665 1.614v15.69c0 0.63-0.222 1.166-0.665 1.608s-0.981 0.663-1.614 0.663v0.548c0 0.297-0.099 0.546-0.298 0.747s-0.448 0.301-0.75 0.301c-0.305 0-0.566-0.093-0.784-0.279s-0.306-0.442-0.263-0.769v-0.548h-10.332v0.548c0 0.297-0.099 0.546-0.298 0.747s-0.449 0.301-0.75 0.301c-0.305 0-0.566-0.093-0.785-0.279s-0.306-0.442-0.263-0.769v-0.548c-0.63 0-1.166-0.221-1.608-0.663s-0.663-0.978-0.663-1.608zM14.167 7.793h3.667v-3.333h-3.667v3.333zM16 15.778c1.276 0 2.536-0.142 3.779-0.425s2.404-0.763 3.482-1.436v-3.844h-14.523v3.846c1.078 0.673 2.239 1.151 3.483 1.435s2.503 0.425 3.779 0.425zM14.952 18.429v-0.43c-1.112-0.067-2.191-0.246-3.236-0.538s-2.038-0.722-2.978-1.289v9.59h14.523v-9.598c-0.939 0.567-1.932 0.997-2.978 1.289s-2.124 0.474-3.236 0.546v0.43c0 0.297-0.1 0.546-0.299 0.747s-0.451 0.301-0.754 0.301c-0.303 0-0.552-0.099-0.748-0.298s-0.294-0.449-0.294-0.75z"></path>
</symbol>
<symbol id="icon-google_icons" viewBox="0 0 32 32">
<path fill="#f44336" style="fill: var(--color1, #f44336)" opacity="0.987" d="M14.418 2.122c1.45-0.162 2.308-0.162 3.866 0 2.758 0.408 5.314 1.683 7.3 3.64-1.342 1.268-2.666 2.555-3.972 3.86-2.501-2.12-5.293-2.609-8.376-1.468-2.261 1.040-3.836 2.725-4.724 5.056-1.451-1.080-2.883-2.186-4.296-3.316-0.098-0.052-0.21-0.071-0.32-0.054 2.244-4.327 5.751-6.9 10.52-7.72z"></path>
<path fill="#ffc107" style="fill: var(--color2, #ffc107)" opacity="0.997" d="M3.893 9.84c0.113-0.017 0.221 0.001 0.322 0.054 1.413 1.13 2.845 2.236 4.296 3.316-0.228 0.908-0.372 1.835-0.43 2.77 0.049 0.904 0.193 1.791 0.43 2.662l-4.51 3.59c-1.964-4.104-2-8.235-0.108-12.392z"></path>
<path fill="#448aff" style="fill: var(--color3, #448aff)" opacity="0.999" d="M25.371 26.579c-1.404-1.238-2.874-2.4-4.404-3.48 1.533-1.083 2.464-2.568 2.792-4.456h-7.514v-5.218c4.333-0.036 8.665 0.001 12.994 0.11 0.821 4.46-0.127 8.481-2.846 12.064-0.323 0.344-0.666 0.671-1.022 0.98z"></path>
<path fill="#43a047" style="fill: var(--color4, #43a047)" opacity="0.993" d="M8.51 18.646c1.64 4.076 4.647 5.979 9.020 5.708 1.228-0.142 2.405-0.571 3.436-1.252 1.531 1.083 2.999 2.243 4.404 3.48-2.227 2.001-5.066 3.188-8.054 3.368-0.679 0.054-1.361 0.054-2.040 0-5.091-0.6-8.849-3.172-11.276-7.716l4.51-3.588z"></path>
</symbol>
</defs>
</svg>
